<?xml version="1.0" encoding="utf-8"?>
<!-- Generator: Adobe Illustrator 18.0.0, SVG Export Plug-In . SVG Version: 6.00 Build 0)  -->
<!DOCTYPE svg PUBLIC "-//W3C//DTD SVG 1.1//EN" "http://www.w3.org/Graphics/SVG/1.1/DTD/svg11.dtd">
<svg version="1.1" id="Capa_1" xmlns="http://www.w3.org/2000/svg" xmlns:xlink="http://www.w3.org/1999/xlink" x="0px" y="0px"
	 viewBox="-144 -144 320 320" enable-background="new -144 -144 320 320" xml:space="preserve">
<rect x="-100.7" y="-40.2" fill="#FFFFFF" width="235.2" height="56"/>
<rect x="-90.6" y="-34.2" fill="#FFFFFF" width="214.5" height="210.2"/>
<rect x="-83.5" y="7.9" fill="#739984" width="200.3" height="160.8"/>
<g>
	<rect x="-83.6" y="-21.4" fill="#678A77" width="28.6" height="190"/>
	<rect x="-26.3" y="-21.4" fill="#678A77" width="28.6" height="190"/>
	<rect x="30.9" y="-21.4" fill="#678A77" width="28.6" height="190"/>
	<rect x="88.1" y="-21.4" fill="#678A77" width="28.6" height="190"/>
</g>
<linearGradient id="SVGID_1_" gradientUnits="userSpaceOnUse" x1="16.5926" y1="8.1718" x2="16.5926" y2="15.59">
	<stop  offset="0" style="stop-color:#18211C"/>
	<stop  offset="1" style="stop-color:#739984;stop-opacity:0"/>
</linearGradient>
<rect x="-83.6" y="7.9" fill="url(#SVGID_1_)" width="200.3" height="7.5"/>
<linearGradient id="SVGID_2_" gradientUnits="userSpaceOnUse" x1="6658.8169" y1="-651.355" x2="6658.8169" y2="-514.5865" gradientTransform="matrix(5.333333e-002 0 0 -0.5669 -338.5443 -203.1379)">
	<stop  offset="9.415583e-002" style="stop-color:#000000"/>
	<stop  offset="1" style="stop-color:#FFFFFF;stop-opacity:0"/>
</linearGradient>
<rect x="-83.6" y="88.3" opacity="0.25" fill="url(#SVGID_2_)" enable-background="new    " width="200.3" height="80.4"/>
<path fill="#FFFFFF" d="M121.7-72.1L121.7-72.1l-0.4-0.7c-0.4-0.7-0.8-1.5-1.4-2.4c-0.4-0.6-0.8-1.2-1.2-1.8l-0.1-0.1
	c-0.4-0.6-0.9-1.2-1.4-1.8c-0.1-0.1-0.1-0.1-0.1-0.2c-0.5-0.9-1.9-2.6-4.1-5.1c-2.2-2.6-3.4-3.8-4.3-4.5c-1.4-1.5-3.7-3.8-6.7-5.4
	c-2.7-1.5-5.8-2.4-9-2.7c0.3-2,0.3-3.9,0.3-5.8c-0.2-5-1.5-9.4-4-13.3c-2-3.1-4.6-5.7-8-7.7l0,0l-0.7-0.4c-0.7-0.4-1.4-0.8-2.4-1.2
	h-0.1c-0.6-0.3-1.3-0.6-2-0.8l-0.2-0.1c-0.6-0.3-1.3-0.5-2.1-0.7c-0.1-0.1-0.1-0.1-0.2-0.1l-0.7-0.3v0.1c-2.6-1-9.6-2.9-11.2-2.9
	c-3.2-0.7-5.9-1-8.4-0.7c-1.9,0.2-3.8,0.6-5.7,1.3c-0.4-0.9-0.9-1.7-1.3-2.5c-2.5-4.2-5.8-7.4-9.7-9.5c-3.3-1.7-7-2.6-11-2.6h-0.1
	h-0.3c-0.8,0-1.7,0.1-2.7,0.2c-0.7,0.1-1.4,0.2-2.1,0.3h-0.1c-0.7,0.1-1.4,0.3-2.1,0.5c-0.1,0-0.1,0-0.2,0c-1.2,0.1-4.1,0.9-6.3,1.5
	c-1.3,0.4-2.6,0.7-3.5,1c-0.6,0.2-1.4,0.4-2.1,0.9c-2,0.6-5,1.8-7.7,3.8c-2.7,2-5.1,4.6-6.9,7.9c-1.4-0.9-2.8-1.7-4.2-2.4
	c-4.3-2-8.8-2.7-13.1-2.1c-3.5,0.5-6.9,1.8-10.2,4l0,0l-0.7,0.5c-0.6,0.5-1.3,1-2.1,1.7l-0.1,0.1c-0.5,0.5-1.1,1-1.6,1.5l-0.1,0.1
	c-0.5,0.5-1,1.1-1.5,1.7c-0.1,0.1-0.1,0.1-0.2,0.1c-0.7,0.6-2.2,2.3-4.4,4.9c-2,2.4-3.2,3.7-3.7,4.9c-1.3,1.7-3.2,4.3-4.3,7.6
	c-0.6,1.7-1,3.4-1.3,5.2c-0.6,0.1-1.3,0.1-1.9,0.2c-4.7,0.5-8.9,2.2-12.4,5c-2.8,2.2-5.1,5.2-6.9,8.8l0,0l-0.3,0.7
	c-0.3,0.7-0.7,1.6-1,2.6c-0.3,0.7-0.5,1.4-0.6,2.1l-0.1,0.2c-0.2,0.7-0.4,1.4-0.5,2.2c0,0.1-0.1,0.1-0.1,0.2
	c-0.3,0.9-0.8,3.1-1.4,6.5c-0.7,3.7-0.9,5.2-0.9,6.3c-0.3,2.1-0.6,5.3-0.1,8.8c0.9,6,4,11.5,9.2,16.5c3.8,3.8,8.8,7.2,14.6,10.1
	c11.2,5.8,23.7,8.3,33.3,9.8c10.1,1.6,21,2.6,33.5,2.9c4.3,0.1,7.3,0.2,10.3,0.1c0.9,1,1.9,2,3.5,2c0.5,0,1,0,1.4,0l0,0
	c17,0,33.8-1.8,49.9-5.2c15-3.2,26.3-8,35.8-14.9c4.9-3.6,8.7-7.7,11.2-12.1c2.5-4.3,3.6-8.8,3.6-13.4
	C124.2-64.9,123.4-68.5,121.7-72.1z M30.9-114.9c-1.5,2.2-3,4.6-4.4,7.3c-3.3,6-6,12.9-8.3,21.2c-3.3-10-7.2-18.3-11.7-25.4
	c0.1-1.1,0.2-2.1,0.3-3.1c0.7-5.6,2.8-13.1,8.1-17.6c4,0.4,7.4,2.1,10,4.9C27.7-124.7,29.7-120.3,30.9-114.9z M52.2-110
	c3.1-3.8,8-8.4,13.9-9.5c3.3,2.5,5.5,5.8,6.5,9.6c1,4.1,0.6,9.2-1.1,14.7c-0.3,1.1-0.7,2.2-1.1,3.3c-1,0.5-2,1.1-3.1,1.6
	c-6.3,3.4-12.7,8-19.4,14.2C51.4-88.9,52.7-99.7,52.2-110z M53.5-36.7h-0.2c-1.1,0.2-2.2,0.3-3.3,0.5c6.4-5.3,12.4-11.1,18.1-16.9
	c7.4-7.7,13.1-15.1,17.3-22.6c0.9-0.4,1.7-0.7,2.6-1c7.2-2.6,13.7-2.8,18.7-0.6c1.4,3.9,1.6,8,0.4,11.8c-1.3,4-4.3,8-8.6,11.6
	c-7.7,6.6-18,11.3-32.3,14.7C62.2-38.2,58-37.4,53.5-36.7z M-14-101.9c-0.1,6.8,0.9,14.2,2.7,22.4c-9.1-8.1-17.5-13.6-26.3-17.2
	c-1.5-4.2-2.9-10.2-1.3-15.7c2.5-1.4,5.3-2.1,8-2.1c1.1,0,2.1,0.1,3.1,0.3c4,1,8.1,3.5,12.1,7.5c0.6,0.6,1.2,1.2,1.8,1.9
	C-14-103.9-14-102.9-14-101.9z M-18.8-41.3c-2.8-0.4-5.6-0.9-8.2-1.4c-14-2.7-24.5-6.7-33.2-12.9c-4.5-3.2-10.1-8.3-11.6-15.2
	c2.1-3.6,5.2-6.1,8.8-7.4c3.3-1.1,7.3-1.2,11.8-0.3c1.3,2.8,2.9,5.6,4.9,8.4c6.9,10.8,16.6,19.5,24.2,25.9
	C-21.2-43.3-20-42.3-18.8-41.3z"/>
<g>
	<g>
		<path fill="#AB4141" d="M25.7-26.5c7.8-15.6,14.2-32.3,18.8-49.3c3.4-12.6,5.3-25.5,3.6-38.5c-1.2-8.9-4.8-18.2-12.8-22.4
			c-4.9-2.6-10.7-2.7-15.9-1.3c-9.6,2.5-19,4-24.3,13.5c-5.9,10.4-5.7,24.3-4.1,35.8C-7.3-76.2-3.4-63.9,0.9-52
			c3.6,9.8,7.6,19.6,12.3,29c0.2,0.3,5.9-1.6,6.3-1.7C19.7-24.8,25.6-26.6,25.7-26.5C17.9-42.1,11.5-58.9,6.9-75.9
			c-3.4-12.6-5.3-25.5-3.6-38.5c1.2-8.9,4.8-18.2,12.8-22.4c0.6-0.3,1.3-0.6,2-0.9c4.5-1.8-15.1,3.6-8.6,2.5
			c1.3-0.2,2.6-0.3,3.9-0.3c2.7,0,5.4,0.5,7.9,1.6c8,3.3,12,11.8,13.7,20c2.6,12.8,0.7,26-2.3,38.5C29.8-63.4,25.6-51.8,21-40.5
			c-2.4,5.9-5,11.8-7.9,17.5c0.1-0.1,1.9-0.5,1.9-0.5c1.5-0.4,3-0.8,4.4-1.2c1.5-0.4,2.9-0.9,4.4-1.3C23.9-26,25.6-26.3,25.7-26.5
			L25.7-26.5z"/>
	</g>
	<g opacity="0.25" enable-background="new    ">
		
			<linearGradient id="SVGID_3_" gradientUnits="userSpaceOnUse" x1="6614.6802" y1="-3306.7646" x2="7282.335" y2="-3306.7646" gradientTransform="matrix(5.333333e-002 0 0 -5.333333e-002 -339.664 -257.3013)">
			<stop  offset="9.415583e-002" style="stop-color:#000000"/>
			<stop  offset="1" style="stop-color:#FFFFFF;stop-opacity:0"/>
		</linearGradient>
		<path fill="url(#SVGID_3_)" d="M25.7-26.5c7.8-15.7,14.3-32.3,18.8-49.3c3.4-12.6,5.3-25.5,3.6-38.5c-1.2-8.9-4.8-18.2-12.8-22.4
			c-2.9-1.5-6.3-2.2-9.6-2.2c-2,0-4.4,1.2-6.3,1.7c-1.8,0.5-4.4,1.8-6.3,1.8c6.2,0.1,11.9,2.6,15.9,7.5c7.1,8.8,7.7,22.5,6.9,33.4
			c-0.9,12.6-4.5,25.1-8.6,36.9c-3.3,9.8-7.2,19.3-11.5,28.6c-0.9,2-1.8,4-2.8,5.9c0.1-0.1,1.9-0.5,1.9-0.5c1.5-0.4,3-0.8,4.4-1.2
			c1.5-0.4,2.9-0.9,4.4-1.3C23.9-26,25.6-26.3,25.7-26.5L25.7-26.5z"/>
	</g>
	<g>
		<path fill="#AB4141" d="M25.6-138.9c-4.2,0-8.2,1.3-12.2,2.5c-4.4,1.2-8.8,2.2-12.6,4.9c-8.3,6-10.3,17.9-10.8,27.7
			c-0.6,12.8,2.3,25.4,5.9,37.6c3.3,11,7.4,21.8,12,32.2c1.6,3.7,3.3,7.4,5.1,11.1c0.2,0.3,5.9-1.6,6.3-1.7c0.4-0.1,6.2-2,6.3-1.8
			C17.7-42.1,11.3-58.9,6.7-75.9c-3.4-12.6-5.3-25.5-3.6-38.5c1.2-8.9,4.8-18.2,12.8-22.4c0.6-0.3,1.3-0.6,2-0.9
			c4.5-1.8-15.1,3.6-8.6,2.5c1.2-0.2,2.4-0.3,3.6-0.3c2,0,4.4-1.2,6.3-1.7C21.1-137.6,23.6-138.9,25.6-138.9L25.6-138.9z"/>
	</g>
	<g opacity="0.3">
		
			<linearGradient id="SVGID_4_" gradientUnits="userSpaceOnUse" x1="6513.6514" y1="-4393.4268" x2="6513.6514" y2="-2219.5903" gradientTransform="matrix(5.333333e-002 0 0 -5.333333e-002 -339.664 -257.3013)">
			<stop  offset="9.415583e-002" style="stop-color:#000000"/>
			<stop  offset="1" style="stop-color:#FFFFFF;stop-opacity:0"/>
		</linearGradient>
		<path fill="url(#SVGID_4_)" d="M25.6-138.9c-4.2,0-8.2,1.3-12.2,2.5c-4.4,1.2-8.8,2.2-12.6,4.9c-8.3,6-10.3,17.9-10.8,27.7
			c-0.6,12.8,2.3,25.4,5.9,37.6c3.3,11,7.4,21.8,12,32.2c1.6,3.7,3.3,7.4,5.1,11.1c0.2,0.3,5.9-1.6,6.3-1.7c0.4-0.1,6.2-2,6.3-1.8
			C17.7-42.1,11.3-58.9,6.7-75.9c-3.4-12.6-5.3-25.5-3.6-38.5c1.2-8.9,4.8-18.2,12.8-22.4c0.6-0.3,1.3-0.6,2-0.9
			c4.5-1.8-15.1,3.6-8.6,2.5c1.2-0.2,2.4-0.3,3.6-0.3c2,0,4.4-1.2,6.3-1.7C21.1-137.6,23.6-138.9,25.6-138.9L25.6-138.9z"/>
	</g>
	<g>
		<path fill="#AB4141" d="M26.1-21.5c14.2-9.6,27.6-20.8,39.6-33.2c8.8-9.2,16.7-19.4,21.3-31.6c3.2-8.3,4.4-18.3-0.6-26.1
			c-3-4.8-8-7.9-13.3-9.4c-9.6-2.8-18.4-6.3-27.5-0.7c-10,6-16.4,18.2-20.4,29.1c-4.4,11.9-6.9,24.6-8.7,37.1
			c-1.5,10.4-2.6,21-2.9,31.5c0,0.3,5.9,1.7,6.3,1.8C20.1-23.1,26.1-21.7,26.1-21.5C26.7-39.2,29-57,33-74.1
			c3-12.7,7.4-24.9,15-35.3c5.2-7.1,12.7-13.4,21.8-12.9c0.7,0.1,1.4,0.2,2.2,0.3c4.8,0.8-14.8-4.6-8.7-2.3c1.2,0.5,2.4,1.1,3.5,1.8
			c2.4,1.4,4.4,3.3,6.1,5.5c5.4,6.9,4.9,16.4,2.5,24.5c-3.7,12.5-11.6,23-20.1,32.3c-8.2,8.9-17.4,16.8-26.7,24.2
			c-4.9,3.9-9.9,7.7-15.1,11.2c0.1-0.1,1.9,0.5,1.8,0.5c1.5,0.4,2.9,0.8,4.4,1.2c1.5,0.4,3,0.8,4.4,1.2C24.3-22,25.9-21.4,26.1-21.5
			L26.1-21.5z"/>
	</g>
	<g opacity="0.25" enable-background="new    ">
		
			<linearGradient id="SVGID_5_" gradientUnits="userSpaceOnUse" x1="7801.1553" y1="1176.3967" x2="8486.8213" y2="1176.3967" gradientTransform="matrix(4.640533e-002 2.628267e-002 2.628267e-002 -4.640533e-002 -353.0471 -226.2295)">
			<stop  offset="9.415583e-002" style="stop-color:#000000"/>
			<stop  offset="1" style="stop-color:#FFFFFF;stop-opacity:0"/>
		</linearGradient>
		<path fill="url(#SVGID_5_)" d="M26.1-21.5c14.2-9.6,27.6-20.8,39.6-33.2c8.8-9.2,16.7-19.4,21.3-31.6c3.2-8.3,4.4-18.3-0.6-26.1
			c-1.8-2.9-4.4-5.1-7.3-6.8c-1.7-1-4.4-1.3-6.3-1.8c-1.8-0.5-4.7-0.6-6.3-1.7c5.4,3.2,9.1,8.3,10.3,14.7c2,11.3-3.9,23.6-9.7,32.7
			c-6.8,10.5-15.8,19.5-24.9,27.7c-7.5,6.8-15.4,13.1-23.5,19c-1.7,1.3-3.5,2.5-5.2,3.7c0.1-0.1,1.9,0.5,1.8,0.5
			c1.5,0.4,2.9,0.8,4.4,1.2c1.5,0.4,3,0.8,4.4,1.2C24.3-21.9,25.9-21.4,26.1-21.5L26.1-21.5z"/>
	</g>
	<g>
		<path fill="#AB4141" d="M79-119.4c-3.6-2.1-7.7-3-11.8-4.1c-4.4-1.2-8.7-2.7-13.3-2.2c-10,1-17.4,10.3-22.4,18.5
			C25-96.4,21.6-83.8,19-71.5c-2.4,11.3-3.8,22.7-4.8,34.2c-0.3,4.1-0.6,8.2-0.8,12.3c0,0.3,5.9,1.7,6.3,1.8
			c0.4,0.1,6.3,1.5,6.3,1.7c0.6-17.6,2.9-35.5,6.9-52.6c3-12.7,7.4-24.9,15-35.3c5.2-7.1,12.7-13.4,21.8-12.9
			c0.7,0.1,1.4,0.2,2.2,0.3c4.8,0.8-14.8-4.6-8.7-2.3c1.1,0.4,2.2,1,3.3,1.6c1.7,1,4.4,1.3,6.3,1.8C74.5-120.5,77.4-120.4,79-119.4
			L79-119.4z"/>
	</g>
	<g opacity="0.3">
		
			<linearGradient id="SVGID_6_" gradientUnits="userSpaceOnUse" x1="7725.458" y1="102.6565" x2="7725.458" y2="2249.8616" gradientTransform="matrix(4.640533e-002 2.628267e-002 2.628267e-002 -4.640533e-002 -353.0471 -226.2295)">
			<stop  offset="9.415583e-002" style="stop-color:#000000"/>
			<stop  offset="1" style="stop-color:#FFFFFF;stop-opacity:0"/>
		</linearGradient>
		<path fill="url(#SVGID_6_)" d="M79-119.4c-3.6-2.1-7.7-3-11.8-4.1c-4.4-1.2-8.7-2.7-13.3-2.2c-10,1-17.4,10.3-22.4,18.5
			C25-96.4,21.6-83.8,19-71.5c-2.4,11.3-3.8,22.7-4.8,34.2c-0.3,4.1-0.6,8.2-0.8,12.3c0,0.3,5.9,1.7,6.3,1.8
			c0.4,0.1,6.3,1.5,6.3,1.7c0.6-17.6,2.9-35.5,6.9-52.6c3-12.7,7.4-24.9,15-35.3c5.2-7.1,12.7-13.4,21.8-12.9
			c0.7,0.1,1.4,0.2,2.2,0.3c4.8,0.8-14.8-4.6-8.7-2.3c1.1,0.4,2.2,1,3.3,1.6c1.7,1,4.4,1.3,6.3,1.8C74.5-120.5,77.4-120.4,79-119.4
			L79-119.4z"/>
	</g>
	<g>
		<path fill="#AB4141" d="M22.5-18.3c16.9,0.1,34-1.5,50.6-5.1c12.2-2.6,24.1-6.7,34.4-14.3c7-5.2,13.3-12.8,13.2-22.2
			c-0.1-5.8-2.6-11.2-6.2-15.4c-6.5-7.8-12.1-15.8-22.6-16.4c-11.5-0.7-23.2,5.9-32.3,12.6C49.6-71.7,40.9-62.5,32.7-53
			c-6.7,7.9-13.2,16-19,24.7c-0.2,0.3,4.1,4.8,4.3,5.1C18.4-23,22.6-18.4,22.5-18.3c9.7-14.4,21-28.1,33.3-40
			C65-67.2,75.1-75,87-79.3c8.1-2.9,17.6-3.9,25,1.7c0.6,0.4,1.1,1,1.7,1.4c3.6,3.4-9.9-12.4-6-6.9c0.7,1.1,1.4,2.2,2,3.5
			c1.2,2.5,2,5.3,2.3,8.1c0.9,8.9-4.5,16.5-10.8,21.9c-9.7,8.3-21.8,12.6-33.8,15.5c-11.5,2.8-23.2,4.2-35,5.1
			c-6.1,0.4-12.3,0.7-18.5,0.7c0.1,0,1.3,1.5,1.2,1.5c1,1.2,2,2.4,3.1,3.6c1.1,1.2,2.1,2.4,3.1,3.5C21.2-19.7,22.3-18.3,22.5-18.3
			L22.5-18.3z"/>
	</g>
	<g opacity="0.25" enable-background="new    ">
		
			<linearGradient id="SVGID_7_" gradientUnits="userSpaceOnUse" x1="6228.8413" y1="6171.6851" x2="6930.4375" y2="6171.6851" gradientTransform="matrix(2.441600e-002 4.741867e-002 4.741867e-002 -2.441600e-002 -382.1986 -200.329)">
			<stop  offset="9.415583e-002" style="stop-color:#000000"/>
			<stop  offset="1" style="stop-color:#FFFFFF;stop-opacity:0"/>
		</linearGradient>
		<path fill="url(#SVGID_7_)" d="M22.5-18.3c16.9,0.1,34-1.5,50.6-5.1c12.2-2.6,24.1-6.7,34.4-14.3c7-5.2,13.3-12.8,13.2-22.2
			c0-3.4-1-6.8-2.5-9.9c-0.9-1.8-3-3.6-4.3-5.1c-1.3-1.4-3.6-3.2-4.4-5c2.8,5.8,3.3,12.2,0.9,18.3C106-50.9,94.6-44,84.9-39.7
			c-11.1,4.8-23.3,7.2-35.3,8.8c-9.8,1.4-19.7,2.1-29.6,2.5c-2.1,0.1-4.2,0.1-6.3,0.1c0.1,0,1.3,1.5,1.2,1.5c1,1.2,2,2.4,3.1,3.6
			c1.1,1.2,2.1,2.4,3.1,3.5C21.2-19.7,22.3-18.3,22.5-18.3L22.5-18.3z"/>
	</g>
	<g>
		<path fill="#AB4141" d="M118.1-69.9c-1.9-3.8-4.9-6.9-7.7-10.2c-3-3.5-5.9-7.2-9.9-9.5c-8.9-4.9-19.9-1.4-28.5,2.7
			C60.8-81.6,51.4-73,42.7-64.2c-7.9,8.1-15.1,16.8-21.9,25.9c-2.4,3.2-4.8,6.5-7.1,9.8c-0.2,0.3,4.1,4.8,4.3,5.1
			c0.3,0.3,4.5,4.9,4.4,5c9.7-14.4,21-28.1,33.3-40c9.1-8.9,19.2-16.6,31.1-20.9c8.1-2.9,17.6-3.9,25,1.7c0.6,0.4,1.1,1,1.7,1.4
			c3.6,3.4-9.9-12.4-6-6.9c0.7,1,1.3,2.1,1.9,3.2c0.9,1.8,3,3.6,4.3,5.1C115-73.4,117.2-71.6,118.1-69.9L118.1-69.9z"/>
	</g>
	<g opacity="0.3">
		
			<linearGradient id="SVGID_8_" gradientUnits="userSpaceOnUse" x1="6147.7563" y1="5123.7964" x2="6147.7563" y2="7220.4731" gradientTransform="matrix(2.441600e-002 4.741867e-002 4.741867e-002 -2.441600e-002 -382.1986 -200.329)">
			<stop  offset="9.415583e-002" style="stop-color:#000000"/>
			<stop  offset="1" style="stop-color:#FFFFFF;stop-opacity:0"/>
		</linearGradient>
		<path fill="url(#SVGID_8_)" d="M118.1-69.9c-1.9-3.8-4.9-6.9-7.7-10.2c-3-3.5-5.9-7.2-9.9-9.5c-8.9-4.9-19.9-1.4-28.5,2.7
			C60.8-81.6,51.4-73,42.7-64.2c-7.9,8.1-15.1,16.8-21.9,25.9c-2.4,3.2-4.8,6.5-7.1,9.8c-0.2,0.3,4.1,4.8,4.3,5.1
			c0.3,0.3,4.5,4.9,4.4,5c9.7-14.4,21-28.1,33.3-40c9.1-8.9,19.2-16.6,31.1-20.9c8.1-2.9,17.6-3.9,25,1.7c0.6,0.4,1.1,1,1.7,1.4
			c3.6,3.4-9.9-12.4-6-6.9c0.7,1,1.3,2.1,1.9,3.2c0.9,1.8,3,3.6,4.3,5.1C115-73.4,117.2-71.6,118.1-69.9L118.1-69.9z"/>
	</g>
	<g>
		<path fill="#AB4141" d="M26.2-30.7c-1.9-17.5-5.6-35.1-10.9-51.8c-4-12.3-9.2-24.2-17.7-33.9c-5.8-6.7-13.7-12.2-22.7-11.1
			c-5.5,0.7-10.3,4.1-13.9,8.3c-6.6,7.7-13.5,14.4-12.9,25.4c0.7,12,8.3,23.4,15.9,32c8.2,9.4,18,17.4,27.9,24.6
			c8.2,6,16.8,11.8,25.7,16.8c0.3,0.2,4.1-4.8,4.3-5.1C22.2-25.7,26.1-30.7,26.2-30.7C11.4-39-2.9-49.1-15.8-60.5
			c-9.5-8.4-18.1-18-23.6-29.8c-3.8-8.1-5.8-17.8-1.4-26.1c0.4-0.6,0.7-1.3,1.2-1.9c2.8-4.1-10.6,11.8-5.8,7.1c1-0.9,2-1.8,3-2.5
			c2.2-1.5,4.8-2.7,7.4-3.3c8.4-2,16.2,2.7,22.1,8.6c9,9,14.6,21.1,18.8,33.2c4,11.6,6.7,23.6,9,35.7c1.2,6.3,2.2,12.7,2.9,19.1
			c0-0.1,1.3-1.5,1.3-1.5c1-1.2,2-2.4,3-3.6c1-1.2,2-2.4,3-3.6C25-29.1,26.2-30.4,26.2-30.7L26.2-30.7z"/>
	</g>
	<g opacity="0.25" enable-background="new    ">
		
			<linearGradient id="SVGID_9_" gradientUnits="userSpaceOnUse" x1="2834.2959" y1="-7137.7041" x2="3541.9832" y2="-7137.7041" gradientTransform="matrix(4.414933e-002 -2.992000e-002 -2.992000e-002 -4.414933e-002 -353.1216 -298.1467)">
			<stop  offset="9.415583e-002" style="stop-color:#000000"/>
			<stop  offset="1" style="stop-color:#FFFFFF;stop-opacity:0"/>
		</linearGradient>
		<path fill="url(#SVGID_9_)" d="M26.2-30.6c-1.9-17.5-5.6-35.1-10.9-51.8c-4-12.3-9.2-24.2-17.7-33.9c-5.8-6.7-13.7-12.2-22.7-11.1
			c-3.3,0.4-6.4,1.9-9.1,3.7c-1.7,1.1-3,3.6-4.3,5.1c-1.2,1.5-2.6,4.1-4.2,5.2c5.1-3.6,11.2-4.9,17.3-3.1
			c10.6,3.1,18.5,14.1,23.7,23.6c6,11,9.7,23.4,12.7,35.6c2.5,10,4.4,20.2,5.9,30.4c0.3,2.2,0.6,4.3,0.9,6.5c0-0.1,1.3-1.5,1.3-1.5
			c1-1.2,2-2.4,3-3.6c1-1.2,2-2.4,3-3.6C25-29.1,26.3-30.4,26.2-30.6L26.2-30.6z"/>
	</g>
	<g>
		<path fill="#AB4141" d="M-34.2-123.6c-3.5,2.5-6,5.9-8.8,9.2c-2.9,3.6-6.1,7-7.8,11.4c-3.6,9.9,1.1,20.8,5.9,29.2
			c6.4,11,15.6,19.7,25.1,27.6C-11.1-38.9-2-32.5,7.5-26.5c3.4,2.1,6.7,4.2,10.2,6.2c0.3,0.2,4.1-4.8,4.3-5.1
			c0.2-0.3,4.1-5.2,4.2-5.2C11.4-38.9-2.9-49-15.8-60.4c-9.5-8.4-18.1-18-23.6-29.8c-3.8-8.1-5.8-17.8-1.4-26.1
			c0.4-0.6,0.7-1.3,1.2-1.9c2.8-4.1-10.6,11.8-5.8,7.1c0.9-0.9,1.8-1.7,2.8-2.4c1.7-1.2,3-3.5,4.3-5.1
			C-37.2-120-35.8-122.5-34.2-123.6L-34.2-123.6z"/>
	</g>
	<g opacity="0.3">
		
			<linearGradient id="SVGID_10_" gradientUnits="userSpaceOnUse" x1="2767.739" y1="-8213.6523" x2="2767.739" y2="-6063.0835" gradientTransform="matrix(4.414933e-002 -2.992000e-002 -2.992000e-002 -4.414933e-002 -353.1216 -298.1467)">
			<stop  offset="9.415583e-002" style="stop-color:#000000"/>
			<stop  offset="1" style="stop-color:#FFFFFF;stop-opacity:0"/>
		</linearGradient>
		<path fill="url(#SVGID_10_)" d="M-34.2-123.6c-3.5,2.5-6,5.9-8.8,9.2c-2.9,3.6-6.1,7-7.8,11.4c-3.6,9.9,1.1,20.8,5.9,29.2
			c6.4,11,15.6,19.7,25.1,27.6C-11.1-38.9-2-32.5,7.5-26.5c3.4,2.1,6.7,4.2,10.2,6.2c0.3,0.2,4.1-4.8,4.3-5.1
			c0.2-0.3,4.1-5.2,4.2-5.2C11.4-38.9-2.9-49-15.8-60.4c-9.5-8.4-18.1-18-23.6-29.8c-3.8-8.1-5.8-17.8-1.4-26.1
			c0.4-0.6,0.7-1.3,1.2-1.9c2.8-4.1-10.6,11.8-5.8,7.1c0.9-0.9,1.8-1.7,2.8-2.4c1.7-1.2,3-3.5,4.3-5.1
			C-37.2-120-35.8-122.5-34.2-123.6L-34.2-123.6z"/>
	</g>
	<g>
		<path fill="#AB4141" d="M23.1-33.8C13.1-47.9,1.5-61.3-11.1-73c-9.3-8.7-19.6-16.1-31.5-20.2c-8.2-2.8-17.7-3.5-24.9,2.2
			c-4.4,3.5-7,8.9-8.1,14.4c-2,10.1-4.8,19.6,1,28.8c6.4,10,18.4,15.9,29,19.5c11.6,3.9,23.9,5.7,36,6.8c10,0.9,20.2,1.4,30.3,1.1
			c0.3,0,1.2-6.3,1.3-6.7C22-27.4,23-33.7,23.1-33.8c-16.8,0.5-34-0.7-50.7-3.9c-12.2-2.4-24.3-6.1-34.7-13.5
			c-7.1-5-13.6-12.5-13.7-21.9c0-0.7,0.1-1.5,0.1-2.3c0.5-5-3.5,15.7-1.7,9.2c0.4-1.3,0.9-2.6,1.4-3.7c1.2-2.6,2.8-4.8,4.8-6.7
			c6.3-6.1,15.3-6.1,23.2-4.1c12.1,3.1,22.7,10.7,32.1,19c9,8,17.1,16.9,24.8,26.2c4,4.9,8,9.8,11.6,15c-0.1-0.1,0.4-2,0.4-1.9
			c0.3-1.5,0.6-3.2,0.9-4.7c0.3-1.5,0.6-3.2,0.9-4.7C22.8-31.8,23.2-33.5,23.1-33.8L23.1-33.8z"/>
	</g>
	<g opacity="0.25" enable-background="new    ">
		
			<linearGradient id="SVGID_11_" gradientUnits="userSpaceOnUse" x1="-1812.1812" y1="-8160.606" x2="-1094.3698" y2="-8160.606" gradientTransform="matrix(2.333867e-002 -4.795733e-002 -4.795733e-002 -2.333867e-002 -378.8134 -322.232)">
			<stop  offset="9.415583e-002" style="stop-color:#000000"/>
			<stop  offset="1" style="stop-color:#FFFFFF;stop-opacity:0"/>
		</linearGradient>
		<path fill="url(#SVGID_11_)" d="M23.2-33.8C13.1-47.9,1.6-61.3-11-73c-9.3-8.7-19.6-16.1-31.5-20.2c-8.2-2.8-17.7-3.5-24.9,2.2
			c-2.6,2.1-4.6,4.9-6.1,8c-0.9,1.8-0.9,4.6-1.3,6.7c-0.4,1.9-0.3,4.9-1.2,6.7c2.7-5.8,7.4-10,13.5-11.6c10.7-2.8,22.8,2.6,31.8,8.1
			c10.5,6.4,19.6,15.2,28,24.2c6.9,7.4,13.4,15.2,19.6,23.3c1.3,1.7,2.6,3.5,3.8,5.2c-0.1-0.1,0.4-2,0.4-1.9
			c0.3-1.5,0.6-3.2,0.9-4.7c0.3-1.5,0.6-3.2,0.9-4.7C22.8-31.8,23.3-33.5,23.2-33.8L23.2-33.8z"/>
	</g>
	<g>
		<path fill="#AB4141" d="M-73.7-82.8c-1.8,4-2.4,8.3-3.2,12.5c-0.9,4.6-2,9.2-1.3,14c1.6,10.4,10.8,17.5,19.1,22.3
			c10.7,6.1,22.9,9,34.9,10.9c10.9,1.8,22,2.6,33,2.8c3.9,0.1,7.9,0.2,11.8,0.1c0.3,0,1.2-6.3,1.3-6.7c0.1-0.4,1-6.7,1.2-6.7
			c-16.8,0.5-34-0.7-50.7-3.9c-12.2-2.4-24.3-6.1-34.7-13.5c-7.1-5-13.6-12.5-13.7-21.9c0-0.7,0.1-1.5,0.1-2.3
			c0.5-5-3.5,15.7-1.7,9.2c0.4-1.2,0.8-2.4,1.3-3.5c0.9-1.9,0.9-4.6,1.3-6.7C-74.5-78.1-74.5-81-73.7-82.8L-73.7-82.8z"/>
	</g>
	<g opacity="0.3">
		
			<linearGradient id="SVGID_12_" gradientUnits="userSpaceOnUse" x1="-1885.7056" y1="-9211.0225" x2="-1885.7056" y2="-7108.8145" gradientTransform="matrix(2.333867e-002 -4.795733e-002 -4.795733e-002 -2.333867e-002 -378.8134 -322.232)">
			<stop  offset="9.415583e-002" style="stop-color:#000000"/>
			<stop  offset="1" style="stop-color:#FFFFFF;stop-opacity:0"/>
		</linearGradient>
		<path fill="url(#SVGID_12_)" d="M-73.7-82.8c-1.8,4-2.4,8.3-3.2,12.5c-0.9,4.6-2,9.2-1.3,14c1.6,10.4,10.8,17.5,19.1,22.3
			c10.7,6.1,22.9,9,34.9,10.9c10.9,1.8,22,2.6,33,2.8c3.9,0.1,7.9,0.2,11.8,0.1c0.3,0,1.2-6.3,1.3-6.7c0.1-0.4,1-6.7,1.2-6.7
			c-16.8,0.5-34-0.7-50.7-3.9c-12.2-2.4-24.3-6.1-34.7-13.5c-7.1-5-13.6-12.5-13.7-21.9c0-0.7,0.1-1.5,0.1-2.3
			c0.5-5-3.5,15.7-1.7,9.2c0.4-1.2,0.8-2.4,1.3-3.5c0.9-1.9,0.9-4.6,1.3-6.7C-74.5-78.1-74.5-81-73.7-82.8L-73.7-82.8z"/>
	</g>
</g>
<rect x="-95" y="-34.2" fill="#4F4F34" width="223.5" height="42.1"/>
<rect x="-95" y="-34.2" fill="#858555" width="223.5" height="42.1"/>
<linearGradient id="SVGID_13_" gradientUnits="userSpaceOnUse" x1="6661.8232" y1="-371.0585" x2="6661.8232" y2="-335.2699" gradientTransform="matrix(5.333333e-002 0 0 -0.5669 -338.5443 -203.1379)">
	<stop  offset="9.415583e-002" style="stop-color:#000000"/>
	<stop  offset="1" style="stop-color:#FFFFFF;stop-opacity:0"/>
</linearGradient>
<rect x="-95" y="-13.1" opacity="0.25" fill="url(#SVGID_13_)" enable-background="new    " width="223.5" height="21"/>
<linearGradient id="SVGID_14_" gradientUnits="userSpaceOnUse" x1="7329.1089" y1="-6085.8198" x2="7401.4878" y2="-6085.8198" gradientTransform="matrix(5.333333e-002 0 0 -5.333333e-002 -339.664 -257.3013)">
	<stop  offset="9.415583e-002" style="stop-color:#000000"/>
	<stop  offset="1" style="stop-color:#FFFFFF;stop-opacity:0"/>
</linearGradient>
<rect x="51.2" y="-34.1" opacity="0.25" fill="url(#SVGID_14_)" enable-background="new    " width="3.8" height="202.8"/>
<rect x="-9.1" y="7.9" fill="#AB4141" width="60.3" height="160.8"/>
<linearGradient id="SVGID_15_" gradientUnits="userSpaceOnUse" x1="21.0502" y1="15.4122" x2="21.0502" y2="7.8771">
	<stop  offset="0" style="stop-color:#AB4141;stop-opacity:0"/>
	<stop  offset="1" style="stop-color:#3D1717"/>
</linearGradient>
<rect x="-9.3" y="7.9" fill="url(#SVGID_15_)" width="60.6" height="7.5"/>
<rect x="-9.2" y="-34.1" fill="#AB4141" width="60.4" height="42"/>
<linearGradient id="SVGID_16_" gradientUnits="userSpaceOnUse" x1="6197.2603" y1="-6085.8198" x2="7087.626" y2="-6085.8198" gradientTransform="matrix(5.333333e-002 0 0 -5.333333e-002 -339.664 -257.3013)">
	<stop  offset="9.415583e-002" style="stop-color:#000000"/>
	<stop  offset="1" style="stop-color:#FFFFFF;stop-opacity:0"/>
</linearGradient>
<rect x="-9.1" y="-34.1" opacity="0.25" fill="url(#SVGID_16_)" enable-background="new    " width="47.5" height="202.8"/>
<linearGradient id="SVGID_17_" gradientUnits="userSpaceOnUse" x1="38.6942" y1="44.2824" x2="38.6942" y2="23.2537" gradientTransform="matrix(-1 0 0 -1 59.7067 31.1307)">
	<stop  offset="0" style="stop-color:#AB4141;stop-opacity:0"/>
	<stop  offset="1" style="stop-color:#3D1717"/>
</linearGradient>
<rect x="-9.1" y="-13.2" opacity="0.5" fill="url(#SVGID_17_)" width="60.3" height="21"/>
<linearGradient id="SVGID_18_" gradientUnits="userSpaceOnUse" x1="38.6942" y1="-57.1472" x2="38.6942" y2="-137.5477" gradientTransform="matrix(-1 0 0 -1 59.7067 31.1307)">
	<stop  offset="0" style="stop-color:#AB4141;stop-opacity:0"/>
	<stop  offset="1" style="stop-color:#3D1717"/>
</linearGradient>
<rect x="-9.1" y="88.3" opacity="0.5" fill="url(#SVGID_18_)" width="60.3" height="80.4"/>
</svg>
