<?xml version="1.0" encoding="utf-8"?>
<!-- Generator: Adobe Illustrator 18.0.0, SVG Export Plug-In . SVG Version: 6.00 Build 0)  -->
<!DOCTYPE svg PUBLIC "-//W3C//DTD SVG 1.1//EN" "http://www.w3.org/Graphics/SVG/1.1/DTD/svg11.dtd">
<svg version="1.1" id="Capa_1" xmlns="http://www.w3.org/2000/svg" xmlns:xlink="http://www.w3.org/1999/xlink" x="0px" y="0px"
	 viewBox="0 0 170 50" enable-background="new 0 0 170 50" xml:space="preserve">
<g>
	<path fill="#D99132" d="M8.3,19.7l6.1,3.5l-6.1,3.5c-1.5,0.9-2.8,2-3.7,3.4C5.1,31,5.8,31.9,7,32.6l18.9,10.9
		c1.1,0.6,2.2,0.9,3.2,0.9c0,0,0.1,0,0.1,0c1.3,0,2.4-0.4,3-0.7l6.5-3.8c0,0,1.4-0.8,2.4-2.5c-1,1.7-2.4,2.5-2.4,2.5l-6.2,3.6
		c-0.3,0.1-1.4,0.7-2.9,0.8l-0.1,0l-0.2,0h0c0.7-1.5,1.1-3.2,1.1-4.9v-7L8.3,19.7z M3.7,26.9v0.4c0.1,0.6,0.3,1.8,0.9,2.9
		c0,0,0,0,0,0l0,0l-0.1-0.2l-0.1-0.1C3.8,28.4,3.7,27.2,3.7,26.9 M36.8,36.2c1.2,0.6,2.4,1,3.6,1.2c-0.4-0.1-0.8-0.2-1.2-0.3
		c-0.7-0.2-1.4-0.5-2.1-0.8C37,36.2,36.9,36.2,36.8,36.2"/>
	<path fill="#95B634" d="M41.2,9C41.2,9,41.2,9,41.2,9C41.2,9,41.2,9,41.2,9c-1.6,0.2-3.2,0.6-4.7,1.5c0,0-0.1,0-0.1,0L30.3,14v0h0
		v18.3l0,0l0,0l6,3.5c0.2,0.1,0.5,0.3,0.7,0.4c0.7,0.3,1.4,0.6,2.1,0.8c0.7,0.2,1.3,0.3,2,0.4c0.5-0.9,0.9-2,0.9-3.3V12.3
		C42.1,11,41.7,9.9,41.2,9"/>
	<path fill="#6FA9DB" d="M29.1,2.1c-1,0-2.1,0.2-3.2,0.9L7,13.9c-1.2,0.7-1.9,1.6-2.4,2.5c0,0,0,0,0,0c0,0,0,0,0,0
		c0.9,1.2,2,2.3,3.3,3.1c0.1,0.1,0.3,0.2,0.4,0.2l6.1,3.5l15.9-9.2l0,0V7C30.3,5.3,29.9,3.6,29.1,2.1c0.1,0,0.1,0,0.1,0c0,0,0,0,0,0
		C29.2,2.1,29.2,2.1,29.1,2.1"/>
	<path fill="#56933D" d="M29.2,2.1c0.7,1.5,1.1,3.2,1.1,4.9v7v0l6.1-3.5c0,0,0.1,0,0.1,0c1.5-0.9,3.1-1.3,4.7-1.5c0,0,0,0,0,0
		c-1-1.7-2.4-2.5-2.4-2.5l-3.1-1.8L32.6,3C32.6,3,31.2,2.2,29.2,2.1C29.2,2.1,29.2,2.1,29.2,2.1"/>
	<path fill="#4C74B2" d="M4.6,16.3C4.6,16.3,4.6,16.3,4.6,16.3c-0.9,1.7-0.9,3.3-0.9,3.4l0,7.2c0,0,0,0,0,0c0,0.3,0.1,1.6,0.8,2.9
		l0.1,0.1l0.1,0.2l0,0l0,0c1-1.3,2.2-2.5,3.7-3.4l6.1-3.5l-6.1-3.5c-0.1-0.1-0.3-0.2-0.4-0.2C6.6,18.6,5.5,17.6,4.6,16.3"/>
	<path fill="#CB6423" d="M30.3,32.4L30.3,32.4v7c0,1.8-0.4,3.4-1.1,4.9h0l0.2,0l0.1,0c1.5-0.1,2.7-0.7,2.9-0.8l6.2-3.6
		c0,0,1.4-0.8,2.4-2.5c-0.2,0-0.5-0.1-0.7-0.1c-1.2-0.2-2.5-0.6-3.6-1.2c-0.1-0.1-0.3-0.2-0.4-0.2L30.3,32.4L30.3,32.4z"/>
	<path fill="#00416B" d="M152.9,23.6c-0.9,0-1.6,0.7-1.6,1.6c0,0.9,0.7,1.6,1.6,1.6c0.9,0,1.6-0.7,1.6-1.6
		C154.5,24.3,153.7,23.6,152.9,23.6 M144.4,24.5c-0.7,0-1.2,0.5-1.2,1.3v3c0,0.1-0.1,0.2-0.2,0.2h-0.8c-0.7,0-1,0.4-1,1
		c0,0.6,0.4,1,1,1h0.8c0.1,0,0.2,0.1,0.2,0.2v7.7c0,2.9,1,4,3.8,4h0.3c0.9,0,1.3-0.5,1.3-1.1c0-0.7-0.4-1.1-1.2-1.1
		c-1.5,0-1.8-0.4-1.8-1.9v-7.6c0-0.1,0.1-0.2,0.2-0.2h1.8c0.7,0,1-0.4,1-1c0-0.6-0.4-1-1-1h-1.8c-0.1,0-0.2-0.1-0.2-0.2v-3
		C145.7,25,145.1,24.5,144.4,24.5 M86.9,28.6c-1.7,0-3.2,0.8-4,2.2c-0.3-0.9-0.7-1.3-0.9-1.5c-0.4-0.4-1-0.6-1.5-0.6
		c-0.7,0-1.2,0.3-1.2,1c0,0.4,0.2,0.6,0.5,0.8c0.5,0.3,0.8,0.6,0.8,1.7v7.1h0v2.1c0,0.8,0.5,1.3,1.2,1.3c0.7,0,1.2-0.5,1.2-1.3v-2.1
		v-1.9v-3.9c0.4-2.2,1.7-2.9,3.2-2.9c2.1,0,3.1,1.3,3.1,3.5v7.2c0,0.8,0.5,1.3,1.2,1.3c0.7,0,1.2-0.5,1.2-1.3v-7.3
		c0-2,1.3-3.4,3.2-3.4c2.1,0,3.1,1.3,3.1,3.5v7.2c0,0.8,0.5,1.3,1.2,1.3c0.7,0,1.2-0.5,1.2-1.3v-7.7c0-3.2-1.8-5.2-4.9-5.2
		c-2.2,0-3.5,0.9-4.4,2.2h0C90.3,29.4,88.9,28.7,86.9,28.6C87,28.6,87,28.6,86.9,28.6 M164.3,28.6c-1.6,0-3.1,0.8-3.7,2.5
		c-0.2-1.1-0.7-1.6-0.9-1.7c-0.4-0.4-1-0.6-1.5-0.6c-0.7,0-1.2,0.3-1.2,1c0,0.4,0.2,0.6,0.5,0.8c0.5,0.3,0.8,0.6,0.8,1.7v4h0v5.2
		c0,0.8,0.5,1.3,1.2,1.3c0.7,0,1.2-0.5,1.2-1.3v-5.2v-0.6v-0.8c0-2.3,0.8-4,2.9-4c0.6,0,1.1,0.1,1.6,0.3c0.2,0.1,0.4,0.1,0.6,0.1
		c0.7,0,1.2-0.5,1.2-1.2c0-0.4-0.2-0.8-0.7-1C165.9,28.9,165.3,28.6,164.3,28.6 M137.5,28.6c-1.6,0-3.1,0.8-3.7,2.5
		c-0.2-1.1-0.7-1.6-0.9-1.7c-0.4-0.4-1-0.6-1.5-0.6c-0.7,0-1.2,0.3-1.2,1c0,0.4,0.2,0.6,0.5,0.8c0.6,0.3,0.9,0.6,0.9,1.7v4h0v5.2
		c0,0.8,0.5,1.3,1.2,1.3c0.7,0,1.2-0.5,1.2-1.3v-5.2v-0.6v-0.8c0-2.3,0.8-4,2.9-4c0.6,0,1.1,0.1,1.6,0.3c0.2,0.1,0.4,0.1,0.6,0.1
		c0.7,0,1.2-0.5,1.2-1.2c0-0.4-0.2-0.8-0.7-1C139.1,28.9,138.4,28.6,137.5,28.6 M122.8,28.6c-1.9,0-3.3,0.5-4.2,1
		c-0.4,0.2-0.6,0.6-0.6,1c0,0.6,0.4,1,1,1c0.2,0,0.5-0.1,0.7-0.2c0.7-0.3,1.7-0.7,2.8-0.7c2.4,0,3.3,1.1,3.3,3v0.7
		c0,0.1-0.1,0.2-0.2,0.2h-3.1c-3.4,0-5.4,1.4-5.4,4.2c0,2.6,1.8,4.1,4.8,4.1c2,0,3.3-0.6,4.2-1.6h0l0.5,0.9c0.3,0.4,0.6,0.6,1.1,0.6
		c0.7,0,1.2-0.5,1.2-1.1c0-0.2-0.1-0.5-0.2-0.7l-0.5-0.9c-0.2-0.4-0.3-0.7-0.3-1.4v-4.9C128.2,30.4,126.5,28.6,122.8,28.6
		 M122.4,40.9c-1.8,0-2.9-0.7-2.9-2.2c0-1.5,1.1-2.2,3.4-2.2h2.8c0.1,0,0.2,0.1,0.2,0.2v1.5C125.9,39.9,124.5,40.9,122.4,40.9
		 M110,28.6c-1.8,0-3.4,0.6-4.1,2.3c-0.3-1-0.7-1.4-0.9-1.5c-0.4-0.4-1-0.6-1.5-0.6c-0.7,0-1.2,0.3-1.2,1c0,0.4,0.2,0.6,0.5,0.8
		c0.5,0.3,0.8,0.6,0.8,1.7v4h0v10.4c0,0.8,0.5,1.3,1.2,1.3c0.7,0,1.2-0.5,1.2-1.3v-5.5h0c0.6,1.1,1.8,1.8,3.9,1.8
		c2.3,0,4-1.3,4.7-3.4c0.3-1.1,0.5-2.2,0.5-3.7c0-1.6-0.1-2.7-0.5-3.8C114.1,29.9,112.4,28.6,110,28.6 M109.5,40.7
		c-1.5,0-2.6-0.8-3-2.1c-0.3-0.7-0.3-1.6-0.3-2.8c0-1.2,0.1-2.1,0.3-2.8c0.5-1.4,1.5-2.2,3-2.2c1.5,0,2.6,0.8,3,2.2
		c0.3,0.7,0.3,1.6,0.3,2.8c0,1.2-0.1,2-0.3,2.8C112,40,111,40.7,109.5,40.7 M72.2,28.6c-2.7,0-4.7,1.3-5.4,3.7
		c-0.3,0.9-0.5,1.9-0.5,3.5c0,1.6,0.1,2.6,0.5,3.5c0.7,2.3,2.8,3.7,5.4,3.7c2.7,0,4.7-1.4,5.4-3.7c0.3-0.9,0.5-1.9,0.5-3.5
		c0-1.6-0.1-2.5-0.5-3.5C76.9,30,74.9,28.6,72.2,28.6 M72.2,40.7c-1.5,0-2.6-0.8-3.1-2.1c-0.2-0.7-0.3-1.5-0.3-2.8
		c0-1.3,0.1-2,0.3-2.8c0.5-1.4,1.6-2.2,3.1-2.2c1.5,0,2.6,0.8,3.1,2.2c0.2,0.7,0.3,1.5,0.3,2.8c0,1.3-0.1,2.1-0.3,2.8
		C74.9,40,73.8,40.7,72.2,40.7 M59.9,28.6c-2.6,0-4.6,1.3-5.4,3.7c-0.3,0.8-0.4,1.9-0.4,3.5c0,1.5,0.2,2.7,0.4,3.5
		c0.8,2.4,2.8,3.7,5.4,3.7c2.1,0,3.5-0.9,4.4-2c0.2-0.3,0.3-0.6,0.3-0.9c0-0.6-0.5-1.1-1.1-1.1c-0.4,0-0.7,0.2-1.1,0.6
		c-0.6,0.7-1.4,1.1-2.6,1.1c-1.5,0-2.6-0.7-3.1-2.1c-0.2-0.7-0.3-1.6-0.3-2.8c0-1.2,0.1-2.1,0.3-2.8c0.5-1.4,1.6-2.2,3.1-2.2
		c1.2,0,2,0.5,2.6,1.1c0.3,0.3,0.6,0.6,1.1,0.6c0.6,0,1.1-0.5,1.1-1.1c0-0.3-0.1-0.6-0.3-0.9C63.5,29.5,62,28.6,59.9,28.6
		 M152.9,28.8c-0.7,0-1.2,0.5-1.2,1.3v11.4c0,0.8,0.5,1.3,1.2,1.3c0.7,0,1.2-0.5,1.2-1.3V30.1C154.1,29.3,153.6,28.8,152.9,28.8"/>
	<path fill="#44422A" d="M100.8,16.5c-0.3,0-0.7,0.1-0.7,0.1l-2.2,5.4c-0.2,0.5,0.3,0.6,0.8,0.6c0.3,0,0.6,0,0.6,0l0.4-1.2h2.1
		l0.2,0.7c0.2,0.5,0.7,0.6,1.2,0.6c0.3,0,0.6-0.1,0.6-0.1l-2.2-5.6C101.5,16.6,101.1,16.5,100.8,16.5 M100.2,20.1l0.6-1.6l0.6,1.6
		H100.2z M89.3,16.5c-0.3,0-0.7,0.1-0.7,0.1l-2.2,5.4c-0.2,0.5,0.3,0.6,0.8,0.6c0.3,0,0.5,0,0.5,0l0.4-1.2h2.1l0.2,0.7
		c0.2,0.5,0.7,0.6,1.2,0.6c0.3,0,0.6-0.1,0.6-0.1L90.1,17C89.9,16.6,89.6,16.5,89.3,16.5 M88.7,20.1l0.6-1.6l0.6,1.6H88.7z
		 M62.1,16.5c-0.3,0-0.7,0.1-0.7,0.1l-2.2,5.4c-0.2,0.5,0.3,0.6,0.8,0.6c0.3,0,0.6,0,0.6,0l0.4-1.2h2.1l0.2,0.7
		c0.2,0.5,0.7,0.6,1.2,0.6c0.3,0,0.6-0.1,0.6-0.1L62.9,17C62.8,16.6,62.4,16.5,62.1,16.5 M61.5,20.1l0.6-1.6l0.6,1.6H61.5z
		 M56.8,16.6c-1.1,0-2.3,0.3-2.3,1.6c0,2,3.1,1.9,3.2,2.7c0,0.4-0.4,0.5-0.9,0.5c-0.4,0-0.9-0.1-1.4-0.2c-0.1,0-0.1,0-0.2,0
		c-0.8,0-0.9,0.9-0.9,0.9s1.3,0.5,2.6,0.5c1.1,0,2.2-0.4,2.3-1.8c0.1-1.9-3.2-2-3.2-2.7c0-0.3,0.4-0.4,0.9-0.4
		c0.4,0,0.9,0.1,1.3,0.1c0,0,0.1,0,0.1,0c0.9,0,0.9-1,0.9-1S57.9,16.6,56.8,16.6 M83.3,16.6c-0.3,0-0.5,0-0.5,0v5.2
		c0,0.5,0.3,0.8,1.3,0.8c0.2,0,0.4,0,0.6,0c1.7-0.2,1.7-0.8,1.6-1.2l-2.1,0v-1.7v-2.6C84.2,16.7,83.7,16.6,83.3,16.6 M96.7,16.6
		c-0.3,0-0.5,0-0.5,0v3.6l-1.9-3.1c-0.2-0.3-0.5-0.5-0.8-0.5c-0.1,0-0.3,0-0.4,0c0,0,0,0,0,0c0,0,0,0,0,0c-0.3,0-0.5,0-0.5,0v5.4
		c0,0.5,0.5,0.6,0.9,0.6c0.3,0,0.5,0,0.5,0v0V19l1.9,3.1c0.2,0.3,0.5,0.5,0.8,0.5c0.1,0,0.3,0,0.4,0c0,0,0,0,0,0c0,0,0,0,0,0
		c0.3,0,0.5,0,0.5,0v0v-5.4C97.6,16.7,97.1,16.6,96.7,16.6 M79,16.6c-0.3,0-0.5,0-0.5,0v5.2c0,0.5,0.4,0.8,1.4,0.8
		c0.3,0,0.5,0,0.9-0.1c1.7-0.2,1.7-0.8,1.6-1.2H80v-4.2C80,16.7,79.5,16.6,79,16.6 M76.6,16.6c-0.3,0-0.5,0-0.5,0v5.4
		c0,0.5,0.5,0.6,0.9,0.6c0.3,0,0.5,0,0.5,0v0v-5.4C77.6,16.7,77,16.6,76.6,16.6 M69.5,16.6c-0.3,0-0.5,0-0.5,0v3.6l-1.9-3.1
		c-0.2-0.3-0.5-0.5-0.8-0.5c-0.1,0-0.3,0-0.4,0c0,0,0,0,0,0c0,0,0,0,0,0c-0.3,0-0.5,0-0.5,0v5.4c0,0.5,0.5,0.6,0.9,0.6
		c0.3,0,0.5,0,0.5,0v0V19l1.9,3.1c0.2,0.3,0.5,0.5,0.8,0.5c0.1,0,0.3,0,0.4,0c0,0,0,0,0,0s0,0,0,0c0.3,0,0.5,0,0.5,0v0v-5.4
		C70.5,16.7,69.9,16.6,69.5,16.6 M75.5,16.6h-3.9c-0.9,0-0.7,1.3-0.7,1.3h1.5v4.1c0,0.5,0.5,0.6,0.9,0.6c0.3,0,0.5,0,0.5,0v0v-4.7
		h0.9C75.8,17.9,75.5,16.6,75.5,16.6"/>
</g>
</svg>
