<?xml version="1.0" encoding="utf-8"?>
<!-- Generator: Adobe Illustrator 18.0.0, SVG Export Plug-In . SVG Version: 6.00 Build 0)  -->
<!DOCTYPE svg PUBLIC "-//W3C//DTD SVG 1.1//EN" "http://www.w3.org/Graphics/SVG/1.1/DTD/svg11.dtd">
<svg version="1.1" id="Capa_1" xmlns="http://www.w3.org/2000/svg" xmlns:xlink="http://www.w3.org/1999/xlink" x="0px" y="0px"
	 viewBox="0 0 20 20" enable-background="new 0 0 20 20" xml:space="preserve">
<g>
	<g>
		<g>
			<path fill="#D9913D" d="M3.3,8.4L3.3,8.4l12.9,7.4c0.7,0.4,1.5,0.6,2.2,0.7c-0.5,0.8-1.1,1.1-1.1,1.1l-3,1.7
				c-0.3,0.1-0.8,0.3-1.4,0.3c-0.5,0-1-0.1-1.5-0.4l-8.7-5c-0.5-0.3-0.9-0.7-1.1-1.1c-0.3-0.5-0.4-1.1-0.4-1.3l0-3.5
				c0,0,0-0.8,0.4-1.5C2,7.4,2.6,8,3.3,8.4"/>
			<path fill="#97B834" d="M18.4,3.5c0.2,0.4,0.4,0.9,0.4,1.5v10c0,0.6-0.2,1.1-0.4,1.5c-0.8-0.1-1.5-0.3-2.2-0.7l-2.8-1.6V5.8
				l2.8-1.6C16.9,3.8,17.7,3.5,18.4,3.5"/>
			<path fill="#61AADE" d="M6.1,10L3.3,8.4C2.6,8,2,7.4,1.6,6.8C1.8,6.4,2.2,6,2.7,5.7l8.7-5c0.5-0.3,1.1-0.4,1.5-0.4
				c0.3,0.7,0.5,1.5,0.5,2.3v3.2L6.1,10z"/>
			<path fill="#269243" d="M15.9,1.5l1.4,0.8c0,0,0.7,0.4,1.1,1.1c-0.8,0.1-1.5,0.3-2.2,0.7l-2.8,1.6V2.6v0c0-0.8-0.2-1.6-0.5-2.3
				c0.9,0,1.6,0.4,1.6,0.4L15.9,1.5z"/>
			<path fill="#0071B6" d="M3.3,8.4L3.3,8.4L6.1,10l-2.8,1.6v0C2.6,12,2,12.6,1.6,13.2c0,0,0,0,0,0c0,0,0-0.1,0-0.1c0,0,0,0,0-0.1
				c-0.3-0.6-0.3-1.2-0.4-1.4l0-3.3c0,0,0-0.8,0.4-1.5C2,7.4,2.6,8,3.3,8.4"/>
			<path fill="#CC6502" d="M16.2,15.8L16.2,15.8l-2.8-1.6v3.2c0,0.8-0.2,1.6-0.5,2.3h0c0,0,0.1,0,0.1,0c0,0,0,0,0.1,0
				c0.7,0,1.2-0.3,1.4-0.4l2.9-1.7c0,0,0.7-0.4,1.1-1.1C17.7,16.5,16.9,16.2,16.2,15.8"/>
		</g>
	</g>
</g>
</svg>
