<?xml version="1.0" encoding="utf-8"?>
<!-- Generator: Adobe Illustrator 18.0.0, SVG Export Plug-In . SVG Version: 6.00 Build 0)  -->
<!DOCTYPE svg PUBLIC "-//W3C//DTD SVG 1.1//EN" "http://www.w3.org/Graphics/SVG/1.1/DTD/svg11.dtd">
<svg version="1.1" id="Capa_1" xmlns="http://www.w3.org/2000/svg" xmlns:xlink="http://www.w3.org/1999/xlink" x="0px" y="0px"
	 viewBox="0 359 1024 16.6" enable-background="new 0 359 1024 16.6" xml:space="preserve">
<g id="Capa_5" display="none">
	<rect x="-124.4" y="247.3" display="inline" fill="#4D4D4D" width="2465" height="412.7"/>
</g>
<g id="Capa_1_1_" display="none">
	<g display="inline">
		<g>
			<path fill="#092430" d="M9.5,394c-0.1-1.2-0.1-2.5-0.2-3.7c-0.1-1.3-0.3-2.6-0.5-3.8c-0.2-2.6-0.3-5.2-0.2-7.7
				c0.1-2.5,0.4-5,0.8-7.5c0.4-2.5,1-4.9,1.6-7.3c1.1-4.3,2-8.8,1.3-13.2h0.3c0.6,4.1-0.1,8.3-1,12.3c-0.5,2.3-1.2,4.6-1.6,7
				c-0.5,2.4-0.7,4.9-0.9,7.3c-0.2,2.6-0.2,5.2-0.1,7.7s0.6,5.1,0.7,7.6C9.8,392.7,9.6,395.8,9.5,394z"/>
		</g>
	</g>
	<g display="inline">
		<polyline fill="#092430" points="10.7,388.4 9.3,388.5 9.3,387.6 10.5,387.1 		"/>
		<circle fill="#FBF5EC" cx="11.9" cy="387.5" r="1.7"/>
	</g>
	<g display="inline">
		<polyline fill="#092430" points="8.9,394.1 9.2,392.7 10.1,392.9 10.2,394.2 		"/>
		<circle fill="#FBF5EC" cx="9.5" cy="395.5" r="1.7"/>
	</g>
	<g display="inline">
		<polyline fill="#092430" points="12.1,366.9 10.7,366.7 10.9,365.7 12.2,365.5 		"/>
		<circle fill="#FBF5EC" cx="13.5" cy="366.2" r="1.7"/>
	</g>
	<g display="inline">
		<polyline fill="#092430" points="8.2,371.7 9.7,371.7 9.7,370.8 8.5,370.3 		"/>
		<circle fill="#FBF5EC" cx="7" cy="370.8" r="1.7"/>
	</g>
	<g display="inline">
		<polyline fill="#092430" points="10.9,358.5 12.3,358.5 12.3,359.5 11.1,359.8 		"/>
		<circle fill="#FBF5EC" cx="9.7" cy="359.5" r="1.7"/>
	</g>
	<g display="inline">
		<g>
			<g>
				<polyline fill="#092430" points="14.1,356.6 12.7,356.9 12.5,355.9 13.7,355.3 				"/>
				<circle fill="#FBF5EC" cx="15.1" cy="355.5" r="1.7"/>
			</g>
		</g>
	</g>
	<g display="inline">
		<polyline fill="#092430" points="10.7,375 9.3,374.7 9.4,373.8 10.7,373.7 		"/>
		<circle fill="#FBF5EC" cx="12.1" cy="374.3" r="1.7"/>
	</g>
	<g display="inline">
		<polyline fill="#092430" points="7.3,382.6 8.7,382.5 8.6,381.5 7.4,381.2 		"/>
		<circle fill="#FBF5EC" cx="6" cy="381.8" r="1.7"/>
	</g>
	<g display="inline">
		<g>
			<path fill="#092430" d="M34.1,394c0.1-1.2,0.1-2.5,0.2-3.7c0.1-1.3,0.3-2.6,0.5-3.8c0.2-2.6,0.3-5.2,0.2-7.7
				c-0.1-2.5-0.4-5-0.8-7.5c-0.4-2.5-1-4.9-1.6-7.3c-1.1-4.3-2-8.8-1.3-13.2H31c-0.6,4.1,0.1,8.3,1,12.3c0.5,2.3,1.2,4.6,1.6,7
				c0.5,2.4,0.7,4.9,0.9,7.3c0.2,2.6,0.2,5.2,0.1,7.7c-0.2,2.6-0.6,5.1-0.7,7.6C33.9,392.7,34,395.8,34.1,394z"/>
		</g>
	</g>
	<g display="inline">
		<polyline fill="#092430" points="33,388.4 34.3,388.5 34.4,387.6 33.2,387.1 		"/>
		<circle fill="#FBF5EC" cx="31.7" cy="387.5" r="1.7"/>
	</g>
	<g display="inline">
		<polyline fill="#092430" points="34.8,394.1 34.5,392.7 33.5,392.9 33.4,394.2 		"/>
		<circle fill="#FBF5EC" cx="34.2" cy="395.5" r="1.7"/>
	</g>
	<g display="inline">
		<polyline fill="#092430" points="31.6,366.9 33,366.7 32.8,365.7 31.5,365.5 		"/>
		<circle fill="#FBF5EC" cx="30.2" cy="366.2" r="1.7"/>
	</g>
	<g display="inline">
		<polyline fill="#092430" points="35.4,371.7 34,371.7 34,370.8 35.2,370.3 		"/>
		<circle fill="#FBF5EC" cx="36.7" cy="370.8" r="1.7"/>
	</g>
	<g display="inline">
		<polyline fill="#092430" points="32.8,358.5 31.4,358.5 31.4,359.5 32.5,359.8 		"/>
		<circle fill="#FBF5EC" cx="34" cy="359.5" r="1.7"/>
	</g>
	<g display="inline">
		<g>
			<g>
				<polyline fill="#092430" points="29.6,356.6 31,356.9 31.1,355.9 30,355.3 				"/>
				<circle fill="#FBF5EC" cx="28.5" cy="355.5" r="1.7"/>
			</g>
		</g>
	</g>
	<g display="inline">
		<polyline fill="#092430" points="33,375 34.4,374.7 34.2,373.8 33,373.7 		"/>
		<circle fill="#FBF5EC" cx="31.6" cy="374.3" r="1.7"/>
	</g>
	<g display="inline">
		<polyline fill="#092430" points="36.4,382.6 34.9,382.5 35,381.5 36.3,381.2 		"/>
		<circle fill="#FBF5EC" cx="37.7" cy="381.8" r="1.7"/>
	</g>
</g>
<g id="Capa_3">
	
		<linearGradient id="SVGID_1_" gradientUnits="userSpaceOnUse" x1="3958.137" y1="215.8729" x2="3958.137" y2="328.1269" gradientTransform="matrix(0.1293 0 0 0.1293 0.4041 324.6189)">
		<stop  offset="0" style="stop-color:#FFFFFF"/>
		<stop  offset="1" style="stop-color:#C8DAE3"/>
	</linearGradient>
	<path fill="url(#SVGID_1_)" d="M1023.7,355.3c-1.5-1.5-3.1-2.9-4.8-2.7c-1.7,0.2-79.2,0.9-83,1.1c-3.8,0.2-83-1-86.8-1.1
		c-1,0-2,0-2.9,0s-1.9-0.1-2.9,0c-3.8,0.1-83,1.2-86.8,1.1c-2.9-0.1-47.9-0.5-70.4-0.8c-1.5-0.2-3.7-0.3-6-0.3
		c-0.5,0-2.3,0.1-5.1,0.1c-0.9,0-1.4-0.1-1.5-0.1c-0.4-0.1-0.9,0-1.2,0.1c-20.9,0.3-75.9,1-79,1c-3.6-0.1-70.7-0.7-77.6-0.9
		c-0.3,0-0.5,0-0.5,0c-3,0.2-5.9,0.2-8.8,0.2c-0.4,0-0.9,0-1.4,0c-21.2,0.3-71,0.6-74,0.7c-3.1,0.1-58.2-0.6-79-1
		c-0.4-0.1-0.8-0.2-1.2-0.1c-0.1,0-0.6,0.1-1.5,0.1c-2.8-0.1-4.5-0.1-5.1-0.1c-2.3-0.1-4.5,0.1-6,0.3c-22.5,0.3-67.5,0.7-70.4,0.8
		c-3.8,0.1-83-1-86.8-1.1c-1,0-2,0-2.9,0c-0.9,0-1.9-0.1-2.9,0c-3.8,0.1-83,1.2-86.8,1.1c-3.8-0.1-81.3-0.9-83-1.1
		c-1.7-0.2-3.3,1.2-4.8,2.7c-1.5,1.5,2.4,3.6,2.4,3.6s4.1-0.1,5.5-0.5c1.4-0.3,4.3,0.6,6,1.4c1.8,0.8,4.6-0.8,7,0
		c2.4,0.8,4.8-1.4,7-1.9c2.2-0.5,5.7,0.9,6.9,1.9c1.2,0.9,2.9,1.9,4.1,1.8c1.2-0.1,6.9,0.9,10.3,1.9c3.4,0.9,13.9,1.4,16.9,0.7
		c2.9-0.7,4.5-1.9,7.4-2.5s10.1-0.8,15.3,0c5.2,0.8,8.9,3.5,12,4.1c3.1,0.6,9.4,1.4,17.2,1.3c7.7-0.1,11.8-3,14.9-4.3
		c3.1-1.3,6.3-0.6,8.1-0.7c1-0.1,5.6-0.8,10-1.5c0.5-0.1,1-0.2,1.4-0.2c0.5-0.2,1-0.2,1.4,0c0.4,0.1,0.8,0.2,1.2,0.3
		c0.4,0.1,0.8,0.2,1.2,0.2c0.4,0.1,0.8,0.2,1.2,0.2c0.4,0.1,0.8,0.2,1.2,0.3c0.3,0.1,0.5,0.1,0.8,0.2c0.3,0.1,0.5,0.1,0.8,0.2
		c3.4,0.5,6.1-1.3,9.1-2c1.3-0.3,2.7-0.6,4.2-0.4c0.3,0.1,0.6,0.1,0.9,0.2c1.6,0.5,3.6,1.5,6.1,1.7c1.4,0.1,2.6-0.8,3.5-1.9
		c1.2,0.1,2.5,0.2,3.8,0.3c0.4,0,0.9,0.1,1.3,0.1c0.3,0,0.5,0,0.8,0.1s0.5,0.1,0.8,0.2c3.9,1.3,8.4,0,12.6,0.6
		c0.3,0.1,0.6,0.1,0.9,0.2c4.3,0.7,8.8,1.4,9.7,1.4c1.7,0.1,5-0.6,8.1,0.7c3.1,1.3,7.2,4.2,14.9,4.3s14.1-0.7,17.2-1.3
		s6.9-3.3,12-4.1c5.2-0.8,12.4-0.6,15.3,0c2.9,0.6,4.5,1.8,7.4,2.5c2.9,0.7,13.4,0.2,16.9-0.7c3.4-0.9,9.1-2,10.3-1.9
		c1.2,0.1,2.9-0.9,4.1-1.8c1.2-0.9,4.6-2.3,6.9-1.9c2.2,0.5,9.3,3.8,11.7,3c2.6-0.3,4.5-1.5,6-1.8c1.7-0.2,9.8,0.6,11.4,0.6
		c1.5,0,1.7-0.9,3.4-0.6c1.7,0.3,16,2.7,17.7,2.8c1.7,0.1,5-0.6,8.1,0.7c3.1,1.3,7.2,4.2,14.9,4.3s14.1-0.7,17.2-1.3s6.9-3.3,12-4.1
		c5.2-0.8,12.4-0.6,15.3,0c2.9,0.6,4.5,1.8,7.4,2.5c2.9,0.7,13.4,0.2,16.9-0.7c1-0.3,2.1-0.5,3.3-0.8c0.4-0.1,0.8-0.2,1.2-0.3
		c1.7-0.4,3.3,0.1,4.9,0.5c3,0.8,4.2-1.7,5.8-2.9c0.3-0.3,0.6-0.5,1-0.7c0.3-0.2,0.7-0.4,1.1-0.5s0.8-0.3,1.2-0.4
		c1.6-0.4,3.3-0.5,5,0.3c0.3,0.2,0.6,0.3,1,0.5c0.3,0.2,0.6,0.3,1,0.4c0.3,0.1,0.5,0.2,0.8,0.3c0.4,0.1,0.6,0.2,1,0.2
		c0.4-0.1,0.7-0.2,1.1-0.2c0.4-0.1,0.7-0.1,1.1-0.2c1.9,0.1,2.7,1.3,3.8,2.2c0.2,0.2,0.4,0.3,0.7,0.5c3.5,2,8.1,2,12,0.4
		c0.4-0.1,0.9-0.2,1.3-0.4c0.4-0.2,0.9-0.3,1.3-0.4c0.3-0.2,0.6-0.3,1-0.4c1.6-0.7,3.1-1.5,5-1.9c0.5-0.1,1-0.1,1.4-0.1
		c0.5,0,1,0.1,1.4,0.2c2.4,0.8,4.8-1.4,7-1.9c2.2-0.5,5.7,0.9,6.9,1.9c1.2,0.9,2.9,1.9,4.1,1.8c1.2-0.1,6.9,0.9,10.3,1.9
		c3.4,0.9,13.9,1.4,16.9,0.7c2.9-0.7,4.5-1.9,7.4-2.5c2.9-0.6,10.1-0.8,15.3,0c5.2,0.8,8.9,3.5,12,4.1c3.1,0.6,9.4,1.4,17.2,1.3
		c7.7-0.1,11.8-3,14.9-4.3c3.1-1.3,6.3-0.6,8.1-0.7c1.7-0.1,16-2.5,17.7-2.8s1.9,0.6,3.4,0.6s9.6-0.8,11.4-0.6
		c1.5,0.2,3.5,1.4,6,1.8c2.4,0.8,9.4-2.6,11.7-3c2.2-0.5,5.7,0.9,6.9,1.9c1.2,0.9,2.9,1.9,4.1,1.8c1.2-0.1,6.9,0.9,10.3,1.9
		c3.4,0.9,13.9,1.4,16.9,0.7c2.9-0.7,4.5-1.9,7.4-2.5c2.9-0.6,10.1-0.8,15.3,0c5.2,0.8,8.9,3.5,12,4.1c3.1,0.5,9.4,1.4,17.2,1.3
		c7.7-0.1,11.8-3,14.9-4.3c3.1-1.3,6.3-0.6,8.1-0.7c1.7-0.1,16-2.5,17.7-2.8s1.9,0.6,3.4,0.6c1.1,0,5.6-0.4,8.7-0.6
		c0.9,1.1,2.1,1.9,3.5,1.9c3.1-0.1,5.3-1.7,7-1.9c1.7-0.2,9.8,0.6,11.4,0.6s1.7-0.9,3.4-0.6c1.7,0.3,16,2.7,17.7,2.8
		c1.7,0.1,5-0.6,8.1,0.7s7.2,4.2,14.9,4.3c7.7,0.1,14.1-0.7,17.2-1.3c3.1-0.6,6.9-3.3,12-4.1c5.2-0.8,12.4-0.6,15.3,0
		s4.5,1.8,7.4,2.5c2.9,0.7,13.4,0.2,16.9-0.7c3.4-0.9,9.1-2,10.3-1.9c1.2,0.1,2.9-0.9,4.1-1.8c1.2-0.9,4.6-2.3,6.9-1.9
		c2.2,0.5,4.6,2.7,7,1.9c2.4-0.8,5.3,0.8,7,0c1.7-0.8,4.6-1.7,6-1.4c1.4,0.3,5.5,0.5,5.5,0.5S1025.3,356.8,1023.7,355.3z"/>
	<path fill="#CCD8E0" d="M1023.7,355.3c-0.2-0.2-0.4-0.4-0.6-0.5c-0.5,1-1.5,2.8-2.7,2.6c-1.7-0.3-3-2-7.7-1.1
		c-4.7,1-9.7,1.7-12.7,0.6c-3.1-1.1-5.1-1.7-6.2-1.1c-1.1,0.5-12,3.4-17.8,3s-7.9-1.6-9.1-1.4c-1.2,0.2,0.9,3.7-8,3.4
		c-8.9-0.3-9.2-2-11.7-2.3s-15.5,0.2-17.4,1.4c-1.9,1.2-10.5,4-20.3,4s-16.2-3.4-17.3-3.4s-13.5-0.6-15.1-1.2
		c-1.7-0.6-10.7-1.9-12.7-1.4c-2,0.5-4.1,0.9-6.6,0.7c-2.5-0.1-3.9-2.7-6.8-2.6c-2.8,0.1-4.2,2.5-6.3,2.6s-2.3-2.4-6.3-1.9
		c-4.1,0.5-7.1,0.2-8.5-0.1c-1.4-0.3-5.1-0.5-6.3,0.5s-11.9,3.2-15,2.7c-3.1-0.5-8.7-1.1-9.8,0s-2.7,4.1-7.3,4
		c-4.6-0.1-6.6-1.7-9.8-1.6c-3.1,0.1-5.9,1.7-7.3,1.6c-1.3-0.1-6.1-1.3-8.5-2s-8.1-5.2-12.4-5c-4.3,0.2-12.7,2.6-13.9,3.5
		c-1.2,0.9-7.3,2.6-9.5,2.8c-2.1,0.2-12.5-1.1-15.6-2.3c-3.1-1.2-6.6-1.8-7.4-2.2c-0.8-0.4-5.3-2.7-8.4-2.3c-3,0.3-1.7,0.7-9.1,1.2
		s-12.1-1.3-17.2-0.5s-3.1,1.8-8,1.1c-4.9-0.7-9.8,1.2-14.6,1.5s-7.3,1.4-12.2,0.4s-7-1.2-9.5,1.1c-2.5,2.3-7.1,2.9-13.7,2
		c-6.6-1-14-2.8-19.6-3.5c-5.5-0.7-16.4-0.3-19.4,0.4c-3,0.7-6.1,3.4-22.5,0c-16.4-3.4-13.3-4.4-20.7-3.8c-6.9,0.5-2.5,1.5-7.5,1.5
		c-0.3,0-0.7,0-1.1,0c-2.6,0-4.9,0.9-7,1.9c-0.4,0.2-0.7,0.3-1.2,0.4c-0.4,0.1-0.7,0.1-1.1,0.2c-0.4,0-0.7,0.1-1.1,0.1
		c-1.1,0.1-2.1-0.2-3.4-0.4c-0.4-0.1-0.7-0.2-1-0.3c-0.4-0.1-0.7-0.2-1.1-0.3c-1-0.3-2-0.7-3.1-1.1c-0.8-0.3-1.8-0.3-2.7-0.3
		c-0.3,0-0.6-0.1-1-0.1c-1-0.1-2-0.1-3-0.2c-0.4-0.1-0.6-0.1-0.9-0.2c-0.7-0.3-0.3-0.9-4.9-1.2c-0.4-0.1-0.9-0.1-1.3-0.1
		c-2.3-0.3-4.5,0.2-6.6,0.9c-0.4,0.1-0.9,0.3-1.2,0.4c-0.4,0.2-0.7,0.3-1.1,0.3c-0.4,0.1-0.7,0.2-1.2,0.3c-1.6,0.4-3.1,0.7-4.6,1
		c-0.3,0.1-0.7,0.2-1.1,0.2c-1.1,0.3-2.3,0.5-3.7,0.8c-16.4,3.4-19.5,0.7-22.5,0s-13.9-1.1-19.4-0.4c-5.5,0.7-12.9,2.6-19.6,3.5
		c-6.6,1-11.2,0.3-13.7-2c-2.5-2.3-4.6-2.1-9.5-1.1c-4.8,1-7.3-0.1-12.2-0.4c-4.8-0.3-9.7-2.2-14.6-1.5c-4.9,0.7-2.8-0.3-8-1.1
		s-9.8,1-17.2,0.5c-7.4-0.4-6-0.9-9.1-1.2c-3-0.3-7.6,1.9-8.4,2.3c-0.8,0.4-4.3,1-7.4,2.2c-3.1,1.2-13.4,2.5-15.6,2.3
		c-2.2-0.2-8.3-1.9-9.5-2.8c-1.2-0.9-9.5-3.4-13.9-3.5s-10,4.3-12.4,5c-2.5,0.7-7.3,2-8.5,2c-1.3,0.1-4.2-1.5-7.3-1.6
		c-3.1-0.1-5.1,1.5-9.8,1.6c-4.6,0.1-6.2-2.9-7.3-4c-1.1-1.1-6.7-0.5-9.8,0c-2.3,0.4-8.9-0.7-12.5-1.7c-0.4-0.1-0.8-0.2-1.1-0.3
		c-2.4-1.7-5.9-1.3-8.8-0.9c-0.4,0.1-0.7,0.1-1.1,0.1c-0.4,0-0.7,0.1-1.1,0.1s-0.7,0-1.2,0c-1.2,0-2.6-0.1-4.1-0.3
		c-4.1-0.5-4.3,2-6.3,1.9c-2.1-0.1-3.5-2.5-6.3-2.6c-0.9,0-1.5,0.2-2.2,0.5c-0.3,0.2-0.6,0.3-0.9,0.5c-2,2.2-5.9,2.6-9.3,1.7
		c-0.4-0.1-0.7-0.2-1.1-0.2c-0.4-0.1-0.7-0.2-1.1-0.3c-0.4-0.1-0.7-0.2-1.1-0.2s-0.7-0.1-1.1-0.2c-1-0.1-1.9,0.1-2.9,0.3
		c-0.3,0-0.5,0.1-0.8,0.1c-2.4,0.3-4.6,0.7-5.4,1c-1.7,0.6-14,1.2-15.1,1.2s-7.5,3.4-17.3,3.4s-18.5-2.8-20.3-4
		c-1.9-1.2-14.9-1.7-17.4-1.4c-2.5,0.3-2.8,1.9-11.7,2.3c-8.9,0.3-6.8-3.1-8-3.4c-1.2-0.2-3.3,1-9.1,1.4c-5.9,0.4-16.7-2.5-17.8-3
		c-1.1-0.5-3.1,0.1-6.2,1.1c-3.1,1-7.7,0.2-12.5-0.8s-6.1,0.7-7.8,1.1c-1.2,0.2-2.2-1.6-2.7-2.6c-0.2,0.2-0.4,0.4-0.6,0.5
		c-1.5,1.5,2.5,3.6,2.5,3.6s4.1-0.1,5.5-0.5c1.4-0.3,4.3,0.6,6,1.4c1.8,0.8,4.6-0.8,7,0c2.4,0.8,4.8-1.4,7-1.9
		c2.2-0.5,5.7,0.9,6.9,1.9c1.2,0.9,2.9,1.9,4.1,1.8c1.2-0.1,6.9,0.9,10.3,1.9c3.4,0.9,13.9,1.4,16.9,0.7c2.9-0.7,4.5-1.9,7.4-2.5
		s10.1-0.8,15.3,0c5.2,0.8,8.9,3.5,12,4.1c3.1,0.6,9.4,1.4,17.2,1.3s11.8-3,14.9-4.3c3.1-1.3,6.3-0.6,8.1-0.7c1-0.1,5.6-0.8,10-1.5
		c0.5-0.1,1-0.2,1.4-0.2c0.5-0.2,1-0.2,1.4,0c0.4,0.1,0.8,0.2,1.2,0.3c0.4,0.1,0.8,0.2,1.2,0.2c0.4,0.1,0.8,0.2,1.2,0.2
		c0.4,0.1,0.8,0.2,1.2,0.3c0.3,0.1,0.5,0.1,0.8,0.2c0.3,0.1,0.5,0.1,0.8,0.2c3.4,0.5,6.1-1.3,9.1-2c1.3-0.3,2.7-0.6,4.2-0.4
		c0.3,0.1,0.6,0.1,0.9,0.2c1.6,0.5,3.6,1.5,6.1,1.7c1.4,0.1,2.6-0.8,3.5-1.9c1.2,0.1,2.5,0.2,3.8,0.3c0.4,0,0.9,0.1,1.3,0.1
		c0.3,0,0.5,0,0.8,0.1c0.3,0.1,0.5,0.1,0.8,0.2c3.9,1.3,8.4,0,12.6,0.6c0.3,0.1,0.6,0.1,0.9,0.2c4.3,0.7,8.8,1.4,9.7,1.4
		c1.7,0.1,5-0.6,8.1,0.7c3.1,1.3,7.2,4.2,14.9,4.3c7.7,0.1,14.1-0.7,17.2-1.3c3.1-0.6,6.9-3.3,12-4.1c5.2-0.8,12.4-0.6,15.3,0
		c2.9,0.6,4.5,1.8,7.4,2.5c2.9,0.7,13.4,0.2,16.9-0.7c3.4-0.9,9.1-2,10.3-1.9c1.2,0.1,2.9-0.9,4.1-1.8c1.2-0.9,4.6-2.3,6.9-1.9
		c2.2,0.5,9.3,3.8,11.7,3c2.6-0.3,4.5-1.5,6-1.8c1.7-0.2,9.8,0.6,11.4,0.6c1.5,0,1.7-0.9,3.4-0.6s16,2.7,17.7,2.8
		c1.7,0.1,5-0.6,8.1,0.7c3.1,1.3,7.2,4.2,14.9,4.3c7.7,0.1,14.1-0.7,17.2-1.3c3.1-0.6,6.9-3.3,12-4.1c5.2-0.8,12.4-0.6,15.3,0
		c2.9,0.6,4.5,1.8,7.4,2.5c2.9,0.7,13.4,0.2,16.9-0.7c1-0.3,2.1-0.5,3.3-0.8c0.4-0.1,0.8-0.2,1.2-0.3c1.7-0.4,3.3,0.1,4.9,0.5
		c3,0.8,4.2-1.7,5.8-2.9c0.3-0.3,0.6-0.5,1-0.7c0.3-0.2,0.7-0.4,1.1-0.5s0.8-0.3,1.2-0.4c1.6-0.4,3.3-0.5,5,0.3
		c0.3,0.2,0.6,0.3,1,0.5c0.3,0.2,0.6,0.3,1,0.4c0.3,0.1,0.5,0.2,0.8,0.3c0.9,0.2,1.7,0.1,2.5-0.1c0.3-0.1,0.5-0.1,0.9-0.1
		c0.9-0.2,1.8,0.4,2.1,0.8c0.4,0.7,1,1.2,1.7,1.6c0.2,0.2,0.4,0.2,0.7,0.3c3.5,2.2,8.3,3.7,12.7,1.4c0.4-0.2,0.7-0.3,1.1-0.5
		s0.6-0.4,1-0.6c0.3-0.2,0.6-0.4,0.9-0.6c1.4-1.1,2.7-2.2,4.8-2.4c0.5-0.1,1-0.1,1.4-0.1c0.5,0,1,0.1,1.4,0.2c2.4,0.8,4.8-1.4,7-1.9
		c2.2-0.5,5.7,0.9,6.9,1.9c1.2,0.9,2.9,1.9,4.1,1.8c1.2-0.1,6.9,0.9,10.3,1.9c3.4,0.9,13.9,1.4,16.9,0.7s4.5-1.9,7.4-2.5
		c2.9-0.6,10.1-0.8,15.3,0c5.2,0.8,8.9,3.5,12,4.1c3.1,0.6,9.4,1.4,17.2,1.3s11.8-3,14.9-4.3c3.1-1.3,6.3-0.6,8.1-0.7
		c1.7-0.1,16-2.5,17.7-2.8c1.7-0.3,1.9,0.6,3.4,0.6s9.6-0.8,11.4-0.6c1.5,0.2,3.5,1.4,6,1.8c2.4,0.8,9.4-2.6,11.7-3
		c2.2-0.5,5.7,0.9,6.9,1.9c1.2,0.9,2.9,1.9,4.1,1.8c1.2-0.1,6.9,0.9,10.3,1.9c3.4,0.9,13.9,1.4,16.9,0.7s4.5-1.9,7.4-2.5
		c2.9-0.6,10.1-0.8,15.3,0c5.2,0.8,8.9,3.5,12,4.1c3.1,0.6,9.4,1.4,17.2,1.3s11.8-3,14.9-4.3c3.1-1.3,6.3-0.6,8.1-0.7
		c1.7-0.1,16-2.5,17.7-2.8c1.7-0.3,1.9,0.6,3.4,0.6c1.1,0,5.6-0.4,8.7-0.6c0.9,1.1,2.1,1.9,3.5,1.9c3.1-0.1,5.3-1.7,7-1.9
		c1.7-0.2,9.8,0.6,11.4,0.6s1.7-0.9,3.4-0.6c1.7,0.3,16,2.7,17.7,2.8c1.7,0.1,5-0.6,8.1,0.7s7.2,4.2,14.9,4.3
		c7.7,0.1,14.1-0.7,17.2-1.3c3.1-0.6,6.9-3.3,12-4.1c5.2-0.8,12.4-0.6,15.3,0s4.5,1.8,7.4,2.5c2.9,0.7,13.4,0.2,16.9-0.7
		c3.4-0.9,9.1-2,10.3-1.9c1.2,0.1,2.9-0.9,4.1-1.8c1.2-0.9,4.6-2.3,6.9-1.9c2.2,0.5,4.6,2.7,7,1.9c2.4-0.8,5.3,0.8,7,0
		c1.7-0.8,4.6-1.7,6-1.4c1.4,0.3,5.5,0.5,5.5,0.5S1025.3,356.8,1023.7,355.3z"/>
</g>
</svg>
